<svg width="29" height="40" viewBox="0 0 29 40" fill="none" xmlns="http://www.w3.org/2000/svg">
<path d="M27.6871 32.164C27.078 28.8902 27.7886 25.3188 27.6871 21.9458C27.5856 18.1759 26.9765 14.5053 26.9765 10.8347C26.9765 7.85847 27.4841 4.68386 26.4689 1.80688C26.5704 1.50926 26.5704 1.11244 26.672 0.814816C26.9765 -0.673279 22.0023 0.120372 21.2917 1.41005C20.7841 1.80688 20.581 2.30291 20.7841 2.69974C20.8856 2.79894 20.8856 2.89815 20.8856 3.09656C19.972 7.56085 18.6523 11.8267 17.1295 16.1918C16.5204 17.8783 15.9114 19.4656 15.3023 21.0529C14.4901 19.5648 13.678 17.9775 12.9674 16.3902C11.0386 11.6283 9.21135 6.7672 6.87651 2.20371C7.18105 0.120373 2.30832 0.318785 1.39469 2.20371C0.278022 4.58466 0.379537 6.96561 0.785597 9.44577C1.19166 12.3228 1.29317 15.1005 1.29317 17.9775C1.39469 23.5331 1.80075 28.9894 1.90226 34.545C1.39469 35.1402 1.29317 35.7355 1.80075 36.4299C2.00378 36.7275 2.30832 36.9259 2.61287 37.2235C3.93257 38.2156 7.58711 37.422 7.58711 35.4378C7.58711 29.6839 7.18105 24.0291 6.97802 18.2751C6.97802 17.6799 6.97802 17.1839 6.97802 16.5886C7.07954 16.787 7.18105 16.9855 7.18105 17.1839C8.09469 19.3664 9.00832 21.5489 10.328 23.6323C11.5462 25.7156 12.1553 27.8982 12.8659 30.0807C12.5614 30.3783 12.4598 30.6759 12.5614 31.0728C12.4598 31.3704 12.6629 31.4696 12.9674 31.5688C13.8811 32.3624 15.6068 31.9656 16.5204 31.5688C16.9265 31.3704 17.3326 31.172 17.7386 30.9735C18.2462 30.6759 18.9568 29.9815 18.7538 29.3862C18.7538 29.287 18.6523 29.0886 18.6523 28.9894C19.3629 27.2037 19.6674 25.418 20.0735 23.5331C20.4795 21.5489 21.1901 19.664 21.9007 17.7791C22.0023 18.672 22.0023 19.4656 22.1038 20.3585C22.4083 23.9299 22.1038 27.4021 22.1038 30.9735C22.1038 32.164 22.2053 33.2553 22.4083 34.3466C22.5098 34.8426 22.9159 36.8267 22.8144 36.9259C21.9007 37.7196 22.2053 38.7116 23.322 38.9101C24.6417 39.2077 26.2659 38.8109 27.281 37.918C28.9053 36.5291 28.0932 34.1482 27.6871 32.164Z" fill="#6BC6B3"/>
</svg>
