<svg xmlns="http://www.w3.org/2000/svg">
  <symbol class="navigation__link-icon" id="icon-search" width="18" height="18" aria-hidden="true" focusable="false"
    fill="currentColor" viewBox="0 0 18 18">
    <path d="m17.7 16.06-3.48-3.48a7.63 7.63 0 0 0 1.53-4.7c0-4.4-3.48-7.88-7.88-7.88A7.81 7.81 0 0 0 0 7.88c0 4.4 3.48 7.87 7.88 7.87 1.73 0 3.37-.61 4.7-1.53l3.48 3.47c.2.2.4.31.82.31.6 0 1.12-.51 1.12-1.13 0-.2-.1-.5-.3-.81ZM2.24 7.88a5.67 5.67 0 0 1 5.63-5.63 5.67 5.67 0 0 1 5.62 5.63 5.67 5.67 0 0 1-5.63 5.62 5.67 5.67 0 0 1-5.62-5.63Z" />
  </symbol>
  <symbol class="navigation__link-icon" id="icon-card" width="21" height="18" aria-hidden="true" focusable="false"
    fill="currentColor" viewBox="0 0 21 18">
    <path d="M20.19 6.86h-3.55L13.19.38c-.2-.38-.61-.48-1.02-.28-.4.19-.5.57-.3.95l3.14 5.8H5.78l3.15-5.8c.2-.38 0-.76-.3-.95A.82.82 0 0 0 7.6.38L4.16 6.86H.8c-.4 0-.81.28-.81.76 0 .38.3.76.81.76h.2l.92 2.86c-.2.1-.3.28-.3.57 0 .38.3.67.7.67L4.06 18h12.88l1.73-5.52c.4 0 .7-.29.7-.67 0-.2-.1-.48-.3-.57L20 8.38h.2c.4 0 .81-.28.81-.76s-.4-.76-.81-.76Zm-4.57 9.62H5.07l-1.21-4.1h13.08l-1.32 4.1Zm1.63-5.53H3.35L2.54 8.3h15.52l-.81 2.66Z" />
  </symbol>
  <symbol class="things-cute__icon" id="icon-lamp" width="40" height="62" aria-hidden="true" focusable="false"
    fill="currentColor" viewBox="0 0 40 62">
    <g opacity=".5">
      <path d="M15.16 37.72c-.3 1-.2 2.19 0 3.58.5 2.59 1.7 5.97 2.4 9.65h5.08c.7-3.58 1.9-6.96 2.5-9.65.3-1.4.3-2.69 0-3.58-.3-.9-.9-1.6-2-2.3h-5.98c-1.2.7-1.8 1.4-2 2.3ZM26.93 57.62H13.17c-1.3 0-2.3 1-2.3 2.19V62h18.36v-2.19c0-1.2-1-2.19-2.3-2.19ZM34.02 2.19H22.34c0-1.2-1-2.19-2.29-2.19-1.3 0-2.3 1-2.3 2.19H6.09L0 27.57c.8-.5 1.6-1 2.6-1 1.39 0 2.19.8 2.89 1.4.7.6 1.2.8 1.4.8.3 0 .8-.3 1.49-.8.7-.5 1.6-1.4 2.9-1.4 1.29 0 2.19.8 2.88 1.4.7.5 1.2.8 1.5.8.1 0 .3-.1.6-.2.2-.1.5-.4.9-.6.5-.4 1.1-1 2-1.2.3-.1.6-.1.89-.1 1.3 0 2.2.8 2.9 1.4.7.5 1.19.8 1.49.8.3 0 .8-.3 1.4-.8.7-.6 1.6-1.4 2.89-1.4 1.4 0 2.2.8 2.9 1.4.29.3.59.5.89.6.2.1.4.2.6.2.3 0 .8-.3 1.4-.9.7-.6 1.59-1.4 2.89-1.4 1 0 1.8.5 2.59 1L34.02 2.19ZM23.44 53.14h-6.88c-.7 0-1.1.5-1.1 1.1 0 .6.5 1.1 1.1 1.1h6.88c.7 0 1.1-.5 1.1-1.1.1-.6-.4-1.1-1.1-1.1Z" />
      <path d="M20.05 28.76c-.1 0-.3.1-.6.2-.2.1-.4.3-.6.4v3.68h2.3v-3.58c-.5-.4-.9-.7-1.1-.7Z" />
    </g>
  </symbol>
  <symbol class="things-cute__icon" id="icon-toy" width="60" height="60" aria-hidden="true" focusable="false"
    fill="currentColor" viewBox="0 0 60 60">
    <path opacity=".5"
      d="m0 44 27.4 16V36.54L0 20.44v23.55Zm51.3-31.52V15c0 1.81-3.5 3.32-7.7 3.32-4.3 0-7.7-1.5-7.7-3.32v-4.13c.3 1.71 3.6 3.12 7.7 3.12 4.3 0 7.7-1.5 7.7-3.32 0-1.81-3.5-3.32-7.7-3.32h-1l-5-2.92v3.12c0 1.81-3.5 3.32-7.7 3.32-2.7 0-5-.6-6.4-1.5-.2-.2-.4-.41-.7-.61-.4-.4-.6-.8-.6-1.21V4.53l-4.8 2.82h-1.1c-4.3 0-7.7 1.5-7.7 3.32 0 1.81 3.5 3.32 7.7 3.32 4.1 0 7.4-1.4 7.7-3.12V15c0 1.81-3.5 3.32-7.7 3.32-4.3 0-7.7-1.5-7.7-3.32v-2.42l-6 3.53 27.5 16.1 27.4-16-6.2-3.73ZM37.7 22.75c0 1.81-3.5 3.32-7.7 3.32-4.3 0-7.7-1.5-7.7-3.32v-4.13c.3 1.72 3.6 3.13 7.7 3.13s7.4-1.41 7.7-3.13v4.13Zm-5.1 14V60L60 44V20.73l-27.4 16Zm-2.7-30.1c4.3 0 7.7-1.52 7.7-3.33S34.1 0 29.9 0c-4.3 0-7.7 1.51-7.7 3.32 0 1.81 3.4 3.32 7.7 3.32Z" />
  </symbol>
  <symbol class="reviews__slider-icon" id="icon-left" width="50" height="26" aria-hidden="true" focusable="false"
    fill="currentColor" viewBox="0 0 50 26">
    <path d="M50 11H7.7l8.1-8.2L13 0 0 13l13 13 2.8-2.8L7.7 15H50v-4Z" />
  </symbol>
  <symbol class="reviews__slider-icon" id="icon-right" width="50" height="26" aria-hidden="true" focusable="false"
    fill="currentColor" viewBox="0 0 50 26">
    <path d="M0 11h42.3l-8.1-8.2L37 0l13 13-13 13-2.8-2.8 8.1-8.2H0v-4Z" />
  </symbol>
  <symbol class="contacts__icon" id="flag" aria-hidden="true" focusable="false" fill="currentColor" width="47"
    height="81" viewBox="0 0 47 81">
    <path d="M7.8 3.9v38.5L47 23 7.8 3.9ZM0 80.9V0h3.8v80.9H0Z" fill="#63D1BB" />
    <path d="M3.8.1H0V81h3.8V.1Z" />
  </symbol>
  <symbol class="page-footer__logo-icon" id="logo-mishka-mobile" width="102" height="35" aria-hidden="true"
    focusable="false" fill="currentColor" viewBox="0 0 102 35">
    <path d="M19.2 21.5c0-2.7-.5-5.3-.5-8 0-2.2.4-4.4-.4-6.5l.1-.7c.2-1-3.3-.5-3.8.5-.3.3-.5.6-.4 1l.1.3c-.7 3.2-1.6 6.3-2.6 9.4L10.4 21c-.6-1.1-1.2-2.2-1.6-3.4-1.4-3.4-2.6-6.9-4.3-10.2.2-1.5-3.2-1.4-3.9 0a8.4 8.4 0 0 0-.4 5.2c.3 2 .4 4 .4 6.1 0 4 .4 7.9.4 11.9-.4.4-.5.9 0 1.4l.5.5c1 .7 3.6.1 3.6-1.3 0-4.1-.3-8.2-.4-12.4v-1.2l.2.4c.6 1.6 1.3 3.2 2.2 4.7 1 1.5 1.3 3.1 1.8 4.7-.2.2-.3.5-.2.7 0 .2.1.3.3.4.6.5 1.8.3 2.5 0l.8-.4c.3-.2 1-.7.7-1.2v-.3l1-3.9a28 28 0 0 1 1.2-4.1l.2 1.9c.2 2.6 0 5.1 0 7.6l.2 2.5c.1.3.4 1.8.3 1.9-.8.5-.6 1.1.2 1.3 1 .2 2.1-.1 2.8-.7 1.2-1.1.6-2.8.4-4.2-.5-2.4 0-5 0-7.4Zm8.4.7c0-2-.8-3.9-.8-5.9 0-2.3.2-4.6-.2-6.9 0-.7-4 .1-3.9 1 .3 2.1.2 4.2.2 6.4 0 2 .5 3.9.7 5.9.3 2.1 0 4.2.1 6.2.1 1 .8 2.7.1 3.6-.4.5 1.5.3 1.6.3.8-.1 1.8-.4 2.3-1 .7-.8.2-2.4.1-3.4-.3-2 0-4.2-.2-6.2ZM44 18.9c-2.2-2.8-6-.8-8.7-1.5C34 17 34 15.1 34 14c0-1.4 0-2.7-.3-4.1 0-1.1 0-2.1.7-2.9l.8-.3 1.1-.1c1.5-.1 4.6.2 4 2.5-.3 1 3.6.4 4-.6 1.1-4.6-7.4-3.7-9.8-3.1-2.2.6-4.6 1.8-4.8 4.4l.3 3.6c.1 1.4-.2 2.8.3 4.1 1.1 3 5.5 1.6 7.8 1.7 3.8.3 2.7 5.5 2.7 7.9 0 1.3 1.2 3.4.2 4.5-.6.7-2 .7-2.8.8-.8.1-2.2.3-2.7-.5-1-1.4.1-3.8 0-5.4-.2-.9-4.2-.1-4 1 .3 2.6-1.4 6.1 2.4 6.6 2.4.3 5.2-.2 7.5-.9 1.2-.4 2.3-.9 3.2-1.8 1-.9.7-2.3.4-3.5-.5-3.1 1-6.5-1-9Zm17.3-.2c0-3.8-.7-7.5-.7-11.3 0-2-4-1.3-4 .3 0 3.6.5 7.2.7 10.8v.2l-5.9.2c.2-4.6-.6-9.2-.4-13.9 0-.6-3.9-.1-3.9 1-.2 4.5.6 8.9.5 13.4l-.3 6.4.3 3.3c.1 1 .5 2.3.2 3.3-.2.8 3.6.3 4-.7.4-1.8-.3-4-.5-5.8-.2-1.7 0-3.5.1-5.2 2-.1 4.1-.3 6.1 0l.3 4.1.2 3.5c0 1 .1 2.5-.2 3.5-.8 2.1 3.1 1.9 3.7.4.7-1.9.5-4.2.4-6.2-.2-2.5-.6-4.9-.6-7.3Zm16.9 4.4c-.9-2.8-2.4-5.2-3.6-7.8l3-5.9c.7-1.8 1.3-3.8 3-5.1.6-.4.6-.9-.3-1-.9-.1-2 .2-2.8.7a12.2 12.2 0 0 0-3 4.4l-3 6.1c0 .1 0 .3-.2.4-.5.3-.8.8-.6 1.3l-2.5 4.6c-.3-5.5-1-11.1-1.2-16.6 0-1.3-4-.5-3.9 1 .2 6.9 1.2 13.7 1.3 20.6v.1c-.3.3-.2.5.1.6 0 1.8 0 3.5-.2 5.3-.5.7.5 1.1 1.1 1.1h.1c.7 0 2.6-.3 2.7-1.4.2-2.1.3-4.2.2-6.3 1.6-1.7 3-3.6 4.1-5.6.8 1.5 1.5 3 2 4.6 1 2.7 2.3 5.3 3.1 8 .5 1.8 4.5.7 4-1-1-2.8-2.5-5.3-3.4-8.1Zm23.5-4.6c-.2-.8-1.4-.8-2.3-.8v-1c0-2.7-.2-5.4-.4-8-.2-2.5-1.6-3.3-4-3.2-2.4.1-5.2.5-7.5 1.4a7 7 0 0 0-4.6 5.7c-.5 3 .2 6.2.4 9.2.2 3.5.1 7 .1 10.5 0 .6 4 0 4-1V23l-.2-2.4c1.4-.6 3.7 0 5.1.1 1.1.1 2.2-.2 3.2-.3l.2 6.9c0 1.2.5 3.5-.4 4.5-.4.5 1.5.3 1.6.3.8-.1 1.8-.4 2.3-1 1-1.1.5-3.8.4-5.1v-5.7c1-.2 2.3-.9 2.1-1.8Zm-14.6-.1-.3-3.7c-.2-2.3.1-5.6 2.3-7 .6-.4 1.7-.3 2.4-.4 1-.2 2-.4 2.8.2 1.2.8 1 3.7 1 4.9l.2 6-1.7.1c-2.3-.2-4.6-.6-6.7-.1ZM24.2 6.7c.5-.1 1-.2 1.5-.5L26 6c.5-.3 1-.8.7-1.4-.5-1.1-.4-2.2-.4-3.4 0-1-1-1.2-1.8-1.2-.7.1-2.2.6-2.2 1.5l.1 3v.4c-.2.2 0 .4 0 .6v.4l.4.5a3 3 0 0 0 1.5.3Z" />
  </symbol>
  <symbol class="social__link-icon" id="icon-vk" width="28" height="23" aria-hidden="true" focusable="false"
    fill="currentColor" viewBox="0 0 28 23">
    <path d="M1 5.8c0-.8.5-1.3 1.5-1.3h4c.3 0 .5.1.5.4L8.4 8a39.7 39.7 0 0 0 2.4 3.4s.2 0 .2-.2l.1-.3V6.7c0-.3 0-.5-.2-.6l-.8-.2c-.3 0-.5-.3-.5-.6v-.1c.4-1.1 1.5-1.7 3.2-1.7h1.5c.7 0 1.3.2 1.7.5.4.3.7.8.7 1.5v5.7l.3.1c.3 0 .5-.1.7-.4A17.7 17.7 0 0 0 21 5.6l.6-.7.8-.4H26.9c.4 0 .7.2.8.5l.2.3a2.4 2.4 0 0 1 0 .6V6c0 .7-.4 1.5-.9 2.2-.5.8-1.1 1.7-2 2.6a27.6 27.6 0 0 0-1.6 2.3c0 .1 0 .3.2.5l3.9 4.6c.2.3.3.5.3.9s-.2.7-.5 1a2 2 0 0 1-1.1.3h-4.6l-.1.1c-.4 0-.8-.2-1.1-.5a241.3 241.3 0 0 1-3-3.3A38.5 38.5 0 0 0 17 19l-.1.4c-.2.6-.6 1-1.1 1h-3c-1.5 0-3-.6-4.4-1.8-1.5-1.3-2.8-3-4-5A47.5 47.5 0 0 1 1 5.8Zm16 6.6c-.4 0-.7-.1-1-.3a.9.9 0 0 1-.5-.8V5.5c0-.3 0-.6-.2-.7-.2-.2-.5-.2-1-.2h-1.5c-.7 0-1.3.1-1.7.4.8.3 1.2 1 1.2 1.7V11c0 .4-.2.8-.6 1-.3.3-.6.5-1 .5-.6 0-1-.3-1.3-.8-1.3-2-2.4-3.8-3-5.6L6 5.6H2.2v.7l.6 1.4a33 33 0 0 0 4.8 8.6c1.8 2 3.5 3.1 5.2 3.1h2.9l.1-.4v-.3l.6-2.2.3-.6c.2-.2.5-.3.7-.3.5 0 .9.3 1.3.8L21 19c.2.2.3.3.5.3h4.4c.5 0 .8-.1.8-.4l-.1-.2-3.9-4.6c-.3-.3-.4-.7-.4-1 0-.5.1-.9.4-1.3l1.3-1.6L25.8 8c.5-.7.8-1.3 1-1.9V5.6h-4.2c-.3 0-.5.2-.6.4l-.2.5c-.4 1.1-1.6 3-3.5 5.3-.4.4-.8.6-1.3.6Z" />
  </symbol>
  <symbol class="social__link-icon" id="icon-youtube" width="28" height="23" aria-hidden="true" focusable="false"
    fill="currentColor" viewBox="0 0 28 23">
    <path d="m17.9 11.3-5.3-3.5a.7.7 0 0 0-1 .5v7a.7.7 0 0 0 1 .6l5.3-3.5a.7.7 0 0 0 0-1.1Zm-5 2.8V9.6l3.4 2.2-3.4 2.3Zm12.5-8.6A2.4 2.4 0 0 0 23.9 4c-3.7-1.4-9.6-1.4-9.9-1.4-.3 0-6.2 0-10 1.4a2.4 2.4 0 0 0-1.4 1.6c-.3 1.1-.6 3-.6 6.3s.3 5.3.6 6.3a2.4 2.4 0 0 0 1.5 1.7c3.7 1.4 9.6 1.4 9.9 1.4.8 0 6.4 0 10-1.4a2.4 2.4 0 0 0 1.4-1.7c.3-1 .6-3 .6-6.3 0-3.2-.3-5.2-.6-6.3ZM24 17.8a1 1 0 0 1-.6.7C20 20 14 20 14 20c0 0-6 0-9.5-1.4a1 1 0 0 1-.6-.7c-.3-1-.6-2.8-.6-6 0-3 .3-5 .6-6a1 1 0 0 1 .6-.7C8 3.8 14 3.8 14 3.8c0 0 6 0 9.5 1.3a1 1 0 0 1 .6.8c.3 1 .6 2.8.6 6 0 3-.3 4.9-.6 6Z" />
  </symbol>
  <symbol class="social__link-icon" id="icon-telegram" width="28" height="23" aria-hidden="true" focusable="false"
    fill="currentColor" viewBox="0 0 28 23">
    <path fill-rule="evenodd" clip-rule="evenodd"
      d="m23.5 3.7.2.6L21 20a.7.7 0 0 1-1 .5l-8-5.3a.7.7 0 0 1 0-1l2.5-3.2-4.3 2.9h-.7l-5.2-2.6a.7.7 0 0 1 0-1.2l18.4-6.6c.2 0 .5 0 .7.2ZM6.3 10.8l3.6 1.8 7.5-5a.7.7 0 0 1 .9 1l-4.8 6 6.4 4.2 2.3-13.6-15.9 5.6Z" />
  </symbol>
  <symbol class="copyright__link-icon" id="logo-htmlacademy" width="27" height="35" aria-hidden="true"
    focusable="false" fill="currentColor" viewBox="0 0 60 60">
    <path d="M30.2 5H30L10.3 7.1v36.2L30 55l19.7-11.7V7.1L30.2 5zm17 36.8L30 52 12.8 41.8V27l17.1 10.2V39l-11.7-7v1.8L30 40.9v1.9l-11.8-7v1.8l11.8 7 11.9-7.1v-7.6l5.3-3.2v15.1zm-.1-17-4.7 2.8-2.2 1.3-10.3-6.1v1.8l8.8 5.3h-.1l-.2.1-1.3.7-7.3-4.3v1.8l5.8 3.4-1.4.9-4.3-2.6v1.8l2.9 1.7-2.9 1.7-17-10.1 17-10.2 17.2 10zm.1-1.8L29.9 12.8 12.8 23V9.4L30 7.6l17.2 1.8V23z" />
  </symbol>
  <symbol class="button-play__icon" id="icon-play" width="101" height="77" aria-hidden="true" focusable="false"
    fill="currentColor" viewBox="0 0 101 77" xmlns="http://www.w3.org/2000/svg">
    <path d="M97.3 18.1s-1-7-3.8-10.1c-3.6-4-7.7-4.1-9.5-4.3-13.4-1-33.4-1-33.4-1s-20 0-33.4 1c-2 .2-6 .3-9.5 4.3-2.8 3.1-3.8 10.1-3.8 10.1s-1 8.2-1 16.4v7.7c0 8.2 1 16.4 1 16.4s.9 7 3.8 10.1c3.6 4 8.4 3.9 10.5 4.3 7.6.8 32.4 1 32.4 1s20 0 33.4-1c1.9-.2 5.9-.3 9.5-4.3 2.8-3.1 3.8-10.1 3.8-10.1s.9-8.2.9-16.4v-7.7c0-8.2-1-16.4-1-16.4Z" 
    fill="#63D1BB" />
    <path d="M50.5 76.8c-1 0-25-.3-32.6-1h-.2l-1.1-.2a16 16 0 0 1-10.8-5C2.4 67 1.4 59.8 1.3 59c0-.3-1-8.5-1-16.7v-7.7c0-8.3.9-16.4.9-16.7v-.1c0-.8 1.2-7.9 4.5-11.6 4-4.4 8.5-4.9 10.7-5.1l.5-.1c13.4-1 33.4-1 33.6-1h.1c.2 0 20.2 0 33.6 1l.6.1c2.2.2 6.7.7 10.7 5.1 3.4 3.6 4.4 10.8 4.5 11.6 0 .3 1 8.5 1 16.8v7.7c0 8.3-1 16.4-1 16.7v.1c-.1.8-1.2 8-4.5 11.6-4 4.4-8.5 4.9-10.7 5.1l-.5.1h-.1c-13.4.9-33.5.9-33.7.9Zm-31.9-6.4c7.5.7 31.2 1 32 1 .7 0 20.1 0 33-1l.7-.1c1.8-.2 4.6-.5 7.2-3.3a20 20 0 0 0 3-8.6c.2-.5 1-8.4 1-16.1v-7.7c0-7.8-1-15.6-1-16.1-.3-2.4-1.4-6.8-3.1-8.5-2.6-2.9-5.4-3.1-7.2-3.3l-.6-.1c-13.2-1-32.9-1-33-1h-.2c-.2 0-20 0-33 1l-.6.1c-1.8.2-4.6.5-7.2 3.3a20 20 0 0 0-3.1 8.6c-.1.6-1 8.4-1 16.1v7.7c0 7.7 1 15.6 1 16.1.3 2.4 1.4 6.8 3 8.5 2.4 2.6 5.4 3 7.6 3.3.6-.1 1 0 1.5.1Z"
    fill="#fff" />
    <path d="M38.6 20.5v35.7l29.8-17.8-29.8-17.9Z" />
  </symbol>
  <symbol class="filter-group__icon" id="icon-tel" width="25" height="24" viewBox="0 0 25 24">
    <path d="M17.4 24h-1A18.8 18.8 0 0 1 0 6.7l-.1-1.4c.1-.9.5-1.4 1.1-2 .6-.7 1.6-1.5 2.5-1.6.7 0 1.8.5 2.2 1 .5.6.7 1.6.9 2.4.2 1 .6 2 .5 2.8-.2 1.2-1.9 1.7-2.3 2.6 1.7 3.6 4.2 6.4 7.6 8.2.8-.5 1.6-2 2.8-2 .4 0 1 .3 1.4.4.5 0 1 .3 1.3.5.8.3 2 .6 2.5 1.2.4.6.7 1.5.6 2.1-.3 1.3-2.5 2.7-3.7 3.1ZM12.6 1.5c6 0 10.9 4.7 10.9 10.6H25C25 5.4 19.5 0 12.6 0v1.5Z" />
    <path d="M12.6 9.2v1.6c.8 0 1.4.6 1.4 1.3h1.6a3 3 0 0 0-3-3ZM12.6 6.1c3.3 0 6.2 2.7 6.2 6h1.6c0-4.1-3.5-7.5-7.7-7.5v1.5h-.1Z" />
  </symbol>
  <symbol class="filter-group__icon" id="icon-email" width="32" height="21" viewBox="0 0 32 21">
     <path d="M28 0H4a4 4 0 0 0-4 4v13a4 4 0 0 0 4 4h24a4 4 0 0 0 4-4V4a4 4 0 0 0-4-4ZM2 5.3l7 5.3-7 5.3V5.3ZM30 17a2 2 0 0 1-2 2H4a2 2 0 0 1-2-2l7.8-5.9 4.4 3.3a3 3 0 0 0 3.6 0l4.4-3.3L30 17Zm0-1.2-7-5.3 7-5.3v10.6Zm-12.8-2.2a2 2 0 0 1-1.2.4c-.4 0-.9-.1-1.2-.4l-4.1-3.1-.8-.6L2 4c0-1.1.9-2 2-2h24a2 2 0 0 1 2 2l-12.8 9.6Z" />
  </symbol>
</svg>