<svg width="101" height="77" fill="currentColor" xmlns="http://www.w3.org/2000/svg"><path d="M97.3 18.1s-1-7-3.8-10.1c-3.6-4-7.7-4.1-9.5-4.3-13.4-1-33.4-1-33.4-1s-20 0-33.4 1c-2 .2-6 .3-9.5 4.3-2.8 3.1-3.8 10.1-3.8 10.1s-1 8.2-1 16.4v7.7c0 8.2 1 16.4 1 16.4s.9 7 3.8 10.1c3.6 4 8.4 3.9 10.5 4.3 7.6.8 32.4 1 32.4 1s20 0 33.4-1c1.9-.2 5.9-.3 9.5-4.3 2.8-3.1 3.8-10.1 3.8-10.1s.9-8.2.9-16.4v-7.7c0-8.2-1-16.4-1-16.4Z" fill="#63D1BB"/><path d="M50.5 76.8c-1 0-25-.3-32.6-1h-.2l-1.1-.2a16 16 0 0 1-10.8-5C2.4 67 1.4 59.8 1.3 59c0-.3-1-8.5-1-16.7v-7.7c0-8.3.9-16.4.9-16.7v-.1c0-.8 1.2-7.9 4.5-11.6 4-4.4 8.5-4.9 10.7-5.1l.5-.1c13.4-1 33.4-1 33.6-1h.1c.2 0 20.2 0 33.6 1l.6.1c2.2.2 6.7.7 10.7 5.1 3.4 3.6 4.4 10.8 4.5 11.6 0 .3 1 8.5 1 16.8v7.7c0 8.3-1 16.4-1 16.7v.1c-.1.8-1.2 8-4.5 11.6-4 4.4-8.5 4.9-10.7 5.1l-.5.1h-.1c-13.4.9-33.5.9-33.7.9Zm-31.9-6.4c7.5.7 31.2 1 32 1 .7 0 20.1 0 33-1l.7-.1c1.8-.2 4.6-.5 7.2-3.3a20 20 0 0 0 3-8.6c.2-.5 1-8.4 1-16.1v-7.7c0-7.8-1-15.6-1-16.1-.3-2.4-1.4-6.8-3.1-8.5-2.6-2.9-5.4-3.1-7.2-3.3l-.6-.1c-13.2-1-32.9-1-33-1h-.2c-.2 0-20 0-33 1l-.6.1c-1.8.2-4.6.5-7.2 3.3a20 20 0 0 0-3.1 8.6c-.1.6-1 8.4-1 16.1v7.7c0 7.7 1 15.6 1 16.1.3 2.4 1.4 6.8 3 8.5 2.4 2.6 5.4 3 7.6 3.3.6-.1 1 0 1.5.1Z" fill="#fff"/><path d="M38.6 20.5v35.7l29.8-17.8-29.8-17.9Z" fill="#fff"/></svg>