<svg width="29" height="40" fill="currentColor" xmlns="http://www.w3.org/2000/svg"><path d="M27.687 32.164c-.609-3.274.102-6.845 0-10.218-.101-3.77-.71-7.44-.71-11.111 0-2.977.507-6.151-.508-9.028.101-.298.101-.695.203-.992.305-1.488-4.67-.695-5.38.595-.508.397-.711.893-.508 1.29.102.099.102.198.102.397-.914 4.464-2.234 8.73-3.756 13.095a257.52 257.52 0 0 1-1.828 4.86 67.034 67.034 0 0 1-2.335-4.662c-1.928-4.762-3.756-9.623-6.09-14.186.304-2.084-4.569-1.885-5.482 0C.278 4.584.38 6.966.785 9.446c.407 2.877.508 5.655.508 8.531.102 5.556.508 11.012.61 16.568-.508.595-.61 1.19-.102 1.885.203.297.507.496.812.794 1.32.992 4.974.198 4.974-1.786 0-5.754-.406-11.409-.609-17.163V16.59c.102.198.203.396.203.595.914 2.182 1.827 4.365 3.147 6.448 1.218 2.084 1.827 4.266 2.538 6.449-.305.297-.406.595-.305.992-.101.297.102.397.406.496.914.793 2.64.397 3.553 0l1.219-.595c.507-.298 1.218-.992 1.015-1.588 0-.099-.102-.297-.102-.397.71-1.785 1.015-3.571 1.421-5.456.407-1.984 1.117-3.869 1.828-5.754.101.893.101 1.687.203 2.58.304 3.57 0 7.043 0 10.614 0 1.191.101 2.282.304 3.374.102.496.508 2.48.406 2.579-.913.794-.609 1.786.508 1.984 1.32.298 2.944-.1 3.959-.992 1.624-1.389.812-3.77.406-5.754Z" fill="#6BC6B3"/></svg>