<svg width="102" height="35" fill="currentColor" xmlns="http://www.w3.org/2000/svg"><path d="M19.2 21.5c0-2.7-.5-5.3-.5-8 0-2.2.4-4.4-.4-6.5l.1-.7c.2-1-3.3-.5-3.8.5-.3.3-.5.6-.4 1l.1.3c-.7 3.2-1.6 6.3-2.6 9.4L10.4 21c-.6-1.1-1.2-2.2-1.6-3.4-1.4-3.4-2.6-6.9-4.3-10.2.2-1.5-3.2-1.4-3.9 0a8.4 8.4 0 0 0-.4 5.2c.3 2 .4 4 .4 6.1 0 4 .4 7.9.4 11.9-.4.4-.5.9 0 1.4l.5.5c1 .7 3.6.1 3.6-1.3 0-4.1-.3-8.2-.4-12.4v-1.2l.2.4c.6 1.6 1.3 3.2 2.2 4.7 1 1.5 1.3 3.1 1.8 4.7-.2.2-.3.5-.2.7 0 .2.1.3.3.4.6.5 1.8.3 2.5 0l.8-.4c.3-.2 1-.7.7-1.2v-.3l1-3.9a28 28 0 0 1 1.2-4.1l.2 1.9c.2 2.6 0 5.1 0 7.6l.2 2.5c.1.3.4 1.8.3 1.9-.8.5-.6 1.1.2 1.3 1 .2 2.1-.1 2.8-.7 1.2-1.1.6-2.8.4-4.2-.5-2.4 0-5 0-7.4Zm8.4.7c0-2-.8-3.9-.8-5.9 0-2.3.2-4.6-.2-6.9 0-.7-4 .1-3.9 1 .3 2.1.2 4.2.2 6.4 0 2 .5 3.9.7 5.9.3 2.1 0 4.2.1 6.2.1 1 .8 2.7.1 3.6-.4.5 1.5.3 1.6.3.8-.1 1.8-.4 2.3-1 .7-.8.2-2.4.1-3.4-.3-2 0-4.2-.2-6.2ZM44 18.9c-2.2-2.8-6-.8-8.7-1.5C34 17 34 15.1 34 14c0-1.4 0-2.7-.3-4.1 0-1.1 0-2.1.7-2.9l.8-.3 1.1-.1c1.5-.1 4.6.2 4 2.5-.3 1 3.6.4 4-.6 1.1-4.6-7.4-3.7-9.8-3.1-2.2.6-4.6 1.8-4.8 4.4l.3 3.6c.1 1.4-.2 2.8.3 4.1 1.1 3 5.5 1.6 7.8 1.7 3.8.3 2.7 5.5 2.7 7.9 0 1.3 1.2 3.4.2 4.5-.6.7-2 .7-2.8.8-.8.1-2.2.3-2.7-.5-1-1.4.1-3.8 0-5.4-.2-.9-4.2-.1-4 1 .3 2.6-1.4 6.1 2.4 6.6 2.4.3 5.2-.2 7.5-.9 1.2-.4 2.3-.9 3.2-1.8 1-.9.7-2.3.4-3.5-.5-3.1 1-6.5-1-9Zm17.3-.2c0-3.8-.7-7.5-.7-11.3 0-2-4-1.3-4 .3 0 3.6.5 7.2.7 10.8v.2l-5.9.2c.2-4.6-.6-9.2-.4-13.9 0-.6-3.9-.1-3.9 1-.2 4.5.6 8.9.5 13.4l-.3 6.4.3 3.3c.1 1 .5 2.3.2 3.3-.2.8 3.6.3 4-.7.4-1.8-.3-4-.5-5.8-.2-1.7 0-3.5.1-5.2 2-.1 4.1-.3 6.1 0l.3 4.1.2 3.5c0 1 .1 2.5-.2 3.5-.8 2.1 3.1 1.9 3.7.4.7-1.9.5-4.2.4-6.2-.2-2.5-.6-4.9-.6-7.3Zm16.9 4.4c-.9-2.8-2.4-5.2-3.6-7.8l3-5.9c.7-1.8 1.3-3.8 3-5.1.6-.4.6-.9-.3-1-.9-.1-2 .2-2.8.7a12.2 12.2 0 0 0-3 4.4l-3 6.1c0 .1 0 .3-.2.4-.5.3-.8.8-.6 1.3l-2.5 4.6c-.3-5.5-1-11.1-1.2-16.6 0-1.3-4-.5-3.9 1 .2 6.9 1.2 13.7 1.3 20.6v.1c-.3.3-.2.5.1.6 0 1.8 0 3.5-.2 5.3-.5.7.5 1.1 1.1 1.1h.1c.7 0 2.6-.3 2.7-1.4.2-2.1.3-4.2.2-6.3 1.6-1.7 3-3.6 4.1-5.6.8 1.5 1.5 3 2 4.6 1 2.7 2.3 5.3 3.1 8 .5 1.8 4.5.7 4-1-1-2.8-2.5-5.3-3.4-8.1Zm23.5-4.6c-.2-.8-1.4-.8-2.3-.8v-1c0-2.7-.2-5.4-.4-8-.2-2.5-1.6-3.3-4-3.2-2.4.1-5.2.5-7.5 1.4a7 7 0 0 0-4.6 5.7c-.5 3 .2 6.2.4 9.2.2 3.5.1 7 .1 10.5 0 .6 4 0 4-1V23l-.2-2.4c1.4-.6 3.7 0 5.1.1 1.1.1 2.2-.2 3.2-.3l.2 6.9c0 1.2.5 3.5-.4 4.5-.4.5 1.5.3 1.6.3.8-.1 1.8-.4 2.3-1 1-1.1.5-3.8.4-5.1v-5.7c1-.2 2.3-.9 2.1-1.8Zm-14.6-.1-.3-3.7c-.2-2.3.1-5.6 2.3-7 .6-.4 1.7-.3 2.4-.4 1-.2 2-.4 2.8.2 1.2.8 1 3.7 1 4.9l.2 6-1.7.1c-2.3-.2-4.6-.6-6.7-.1ZM24.2 6.7c.5-.1 1-.2 1.5-.5L26 6c.5-.3 1-.8.7-1.4-.5-1.1-.4-2.2-.4-3.4 0-1-1-1.2-1.8-1.2-.7.1-2.2.6-2.2 1.5l.1 3v.4c-.2.2 0 .4 0 .6v.4l.4.5a3 3 0 0 0 1.5.3Z"/></svg>