<svg xmlns="http://www.w3.org/2000/svg" xmlns:xlink="http://www.w3.org/1999/xlink"><symbol id="arrow-left"><path d="M50 11H7.7l8.1-8.2L13 0 0 13l13 13 2.8-2.8L7.7 15H50v-4Z"/></symbol><symbol id="arrow-right"><path d="M0 11h42.3l-8.1-8.2L37 0l13 13-13 13-2.8-2.8 8.1-8.2H0v-4Z"/></symbol><symbol id="flag"><path d="M7.766 4.767v38.567L47 24 7.766 4.767ZM0 81.9V.9h3.833v81H0Z" fill="#63D1BB"/><path d="M3.833 1H0v81h3.833V1Z" fill="#231F20"/></symbol><symbol id="icon-active-checkbox"><path stroke="#444" stroke-width="2" d="M1 1h36v36H1z"/><path d="m30.963 12.684-.994-.992-14.204 14.094-7.03-7.011-.994.991 7.03 7.012.994.991 1.066-.991 14.132-14.094Z" fill="#000"/></symbol><symbol id="icon-active-radio"><path d="M20.91 2.513c10.584 0 19.132 8.42 19.132 18.766 0 10.347-8.549 18.766-19.132 18.766-10.584 0-19.132-8.419-19.132-18.766 0-10.347 8.548-18.766 19.132-18.766Z" stroke="#444" stroke-width="2"/><path fill-rule="evenodd" clip-rule="evenodd" d="M21.193 13.24a7.933 7.933 0 1 1 0 15.867 7.933 7.933 0 0 1 0-15.866Z" fill="#62D1BA"/></symbol><symbol id="icon-cart"><path d="M20.188 6.857h-3.55L13.188.381C12.985 0 12.58-.095 12.174.095s-.507.572-.304.953l3.145 5.81H5.783l3.145-5.81c.202-.381 0-.762-.305-.953-.406-.19-.811 0-1.014.286l-3.45 6.476H.812c-.406 0-.812.286-.812.762 0 .381.304.762.812.762h.202l.914 2.857c-.203.095-.305.286-.305.572 0 .38.305.666.71.666L4.058 18h12.884l1.725-5.524c.405 0 .71-.286.71-.667 0-.19-.102-.476-.304-.57l.912-2.858h.203c.406 0 .812-.286.812-.762 0-.476-.406-.762-.812-.762Zm-4.565 9.62H5.073L3.854 12.38h13.087l-1.319 4.095Zm1.623-5.525H3.348l-.812-2.666h15.522l-.812 2.666Z"/></symbol><symbol id="icon-checkbox"><path stroke="#444" stroke-width="2" d="M1 1h36v36H1z"/></symbol><symbol id="icon-chek"><path d="M32.37 1.357 31.01 0 11.574 19.286l-9.62-9.594-1.361 1.357 9.62 9.594L11.573 22l1.459-1.357L32.37 1.357Z" fill="#000"/></symbol><symbol id="icon-circle"><path fill-rule="evenodd" clip-rule="evenodd" d="M10.24.393c5.424 0 9.821 4.397 9.821 9.822 0 5.424-4.397 9.822-9.822 9.822-5.424 0-9.821-4.398-9.821-9.822C.418 4.79 4.815.393 10.24.393Z" fill="#62D1BA"/></symbol><symbol id="icon-flag"><path d="M7.766 3.862v38.52L47 23.071 7.766 3.862ZM0 80.9V0h3.833v80.9H0Z" fill="#63D1BB"/><path d="M3.833.1H0V81h3.833V.1Z" fill="#231F20"/></symbol><symbol id="icon-flover"><path d="M16.5 38C25.575 38 33 30.645 33 21.656c-9.075 0-16.5 7.253-16.5 16.344ZM4.744 16.65c0 2.554 2.062 4.495 4.537 4.495.928 0 1.856-.306 2.578-.817v.306c0 2.554 2.063 4.495 4.538 4.495 2.578 0 4.537-2.043 4.537-4.495v-.306c.722.51 1.65.817 2.578.817 2.579 0 4.538-2.043 4.538-4.494 0-1.84-1.031-3.371-2.578-4.086 1.547-.715 2.578-2.248 2.578-4.087 0-2.553-2.063-4.494-4.538-4.494-.928 0-1.856.306-2.578.817v-.306C20.934 1.94 18.872 0 16.397 0c-2.578 0-4.538 2.043-4.538 4.495V4.8a4.542 4.542 0 0 0-2.578-.817c-2.578 0-4.537 2.043-4.537 4.494 0 1.84 1.031 3.372 2.578 4.087-1.444.715-2.578 2.247-2.578 4.086ZM16.5 7.969c2.578 0 4.538 2.043 4.538 4.494 0 2.554-2.063 4.495-4.538 4.495-2.578 0-4.537-2.043-4.537-4.495 0-2.451 1.959-4.494 4.537-4.494ZM0 21.656C0 30.646 7.425 38 16.5 38c0-9.091-7.425-16.344-16.5-16.344Z" fill="#63D1BB"/></symbol><symbol id="icon-gift"><path d="M3.028 32h12.614V18.272H3.028V32ZM31.385 8.691h-7.367c.505-.296 1.01-.493 1.413-.79 1.615-1.086 2.422-2.568 2.422-3.95 0-1.186-.605-2.173-1.413-2.865C25.633.396 24.523 0 23.413 0c-1.211 0-2.422.395-3.33 1.086-1.514.988-2.624 2.47-3.432 4.05 0 .099-.1.197-.1.197-.303-.592-.606-1.185-1.01-1.777-.706-.988-1.514-1.877-2.523-2.47C12.01.494 10.9 0 9.688 0c-1.21 0-2.321.494-3.23 1.284-.807.79-1.412 1.876-1.412 3.062 0 .691.202 1.481.605 2.173.606.888 1.413 1.58 2.624 2.172h-6.66C.706 8.691 0 9.383 0 10.271V16.1h15.541V8.69h1.918V16.1H33v-5.827c0-.89-.706-1.58-1.615-1.58ZM8.881 6.42c-.606-.395-1.01-.79-1.211-1.087-.202-.395-.303-.691-.303-.987 0-.494.202-.988.706-1.482.404-.395 1.01-.691 1.615-.691.707 0 1.413.197 2.018.691a7.6 7.6 0 0 1 2.624 3.16c.303.692.606 1.383.808 2.075-3.129-.297-5.147-.988-6.257-1.68Zm10.596-1.58c.606-.79 1.211-1.482 1.918-1.877.706-.494 1.412-.691 2.018-.691.605 0 1.11.197 1.514.493.403.297.605.692.605 1.186 0 .493-.303 1.284-1.514 2.074-1.11.79-3.128 1.679-6.156 2.271a10.88 10.88 0 0 1 1.615-3.456ZM17.46 32h12.614V18.272H17.46V32Z" fill="#63D1BB"/></symbol><symbol id="icon-heart"><path d="M34 8.45C34 3.788 29.982 0 25.036 0A9.248 9.248 0 0 0 17 4.662C15.558 1.942 12.467 0 8.964 0 4.018 0 0 3.788 0 8.45 0 17.288 15.146 27 17 27c1.958 0 17-9.615 17-18.55Z" fill="#63D1BB"/></symbol><symbol id="icon-htmlacademy"><path d="M13.6 0h-.1L0 1.4v24.7l13.5 8 13.4-8V1.4L13.6 0ZM25 12.1 13.5 5.3v-.1h-.1l-.1-.1v.1L1.9 12.1v-9l11.5-1.2L25 3.1v9ZM13.4 6.8l11.5 6.7-4.5 2.6-7.1-4.2v1.4l5.9 3.5-.9.5-5-3v1.4l3.8 2.3-.8.5-3-1.8v1.4l1.9 1.1-1.8 1.1L2 13.6l11.4-6.8ZM1.9 15.1l11.4 6.8v1l-7.9-4.7v1.4l8 4.8v1.1l-8-4.7v1.4l8 4.8 8.1-4.9v-5.2l3.4-2v10l-11.5 6.9L1.9 25v-9.9Z"/></symbol><symbol id="icon-interior"><g fill="#149080"><path d="M15.162 37.717c-.3.995-.2 2.19 0 3.582.499 2.588 1.696 5.971 2.394 9.654h5.087c.698-3.583 1.895-6.967 2.494-9.654.3-1.393.3-2.687 0-3.582-.3-.896-.898-1.593-1.995-2.29h-5.985c-1.197.697-1.796 1.394-1.995 2.29ZM26.933 57.621H13.167c-1.297 0-2.294.995-2.294 2.19V62h18.354v-2.19c0-1.194-.998-2.189-2.294-2.189ZM34.015 2.19h-11.67C22.344.994 21.346 0 20.05 0s-2.294.995-2.294 2.19H6.085L0 27.566c.798-.498 1.596-.995 2.594-.995 1.396 0 2.194.796 2.892 1.393.699.597 1.197.796 1.397.796.299 0 .798-.299 1.496-.796.698-.498 1.596-1.393 2.893-1.393 1.297 0 2.194.796 2.893 1.393.698.497 1.197.796 1.496.796.1 0 .3-.1.598-.199.2-.1.5-.398.898-.597.499-.398 1.097-.995 1.995-1.194.3-.1.599-.1.898-.1 1.297 0 2.194.796 2.893 1.393.698.498 1.197.797 1.496.797.3 0 .798-.299 1.396-.797.699-.597 1.596-1.393 2.893-1.393 1.397 0 2.195.796 2.893 1.393.3.299.598.498.898.598.2.1.399.199.598.199.3 0 .798-.299 1.397-.896.698-.597 1.596-1.393 2.892-1.393.998 0 1.796.497 2.594.995L34.015 2.189ZM23.442 53.143h-6.883c-.699 0-1.098.497-1.098 1.094 0 .597.5 1.095 1.098 1.095h6.883c.698 0 1.097-.498 1.097-1.095.1-.597-.4-1.094-1.098-1.094Z"/><path d="M20.05 28.76c-.1 0-.3.1-.599.199-.2.1-.399.298-.598.398v3.682h2.294v-3.583c-.499-.398-.898-.696-1.097-.696Z"/></g></symbol><symbol id="icon-mail"><path d="M28 0H4C1.8 0 0 1.8 0 4v13c0 2.2 1.8 4 4 4h24c2.2 0 4-1.8 4-4V4c0-2.2-1.8-4-4-4ZM2 5.3l7 5.3-7 5.3V5.3ZM30 17c0 1.1-.9 2-2 2H4c-1.1 0-2-.9-2-2l7.8-5.9 4.4 3.3c.5.4 1.2.6 1.8.6.6 0 1.3-.2 1.8-.6l4.4-3.3L30 17Zm0-1.2-7-5.3 7-5.3v10.6Zm-12.8-2.2c-.4.3-.8.4-1.2.4-.4 0-.9-.1-1.2-.4l-4.1-3.1-.8-.6L2 4c0-1.1.9-2 2-2h24c1.1 0 2 .9 2 2l-12.8 9.6Z"/></symbol><symbol id="icon-money"><path d="M43.066 0H3.933C1.715 0 0 1.681 0 3.857v19.286C0 25.319 1.715 27 3.933 27h39.133C45.286 27 47 25.319 47 23.143V3.857C47 1.78 45.184 0 43.066 0ZM3.026 24.725V2.77H43.57v21.956H3.026Z" fill="#63D1BB"/><path d="M6.96 20.868h32.677V6.627H6.96v14.241ZM23.5 8.506c2.925 0 5.346 2.373 5.346 5.242 0 2.868-2.421 5.241-5.346 5.241-2.925 0-5.346-2.373-5.346-5.242 0-2.967 2.421-5.241 5.346-5.241Z" fill="#63D1BB"/></symbol><symbol id="icon-phone"><path d="M17.44 24h-1.11c-4.939-.593-8.568-2.864-11.189-5.728C2.521 15.408.403 11.753 0 6.716V5.333c.1-.888.504-1.481 1.109-2.074.605-.69 1.613-1.481 2.52-1.58.706 0 1.815.494 2.218 1.087.403.493.605 1.58.806 2.37.202.889.605 1.975.504 2.765-.201 1.186-1.814 1.68-2.217 2.568 1.612 3.655 4.133 6.42 7.56 8.198.806-.494 1.613-1.877 2.823-1.877.403 0 1.008.198 1.41.297.505.098.908.296 1.311.493.706.297 2.017.593 2.42 1.186.403.592.705 1.58.605 2.172-.303 1.284-2.42 2.667-3.63 3.062ZM12.6 1.481c5.948 0 10.888 4.741 10.888 10.667H25C25 5.432 19.456 0 12.6 0v1.481Z"/><path d="M12.6 9.185v1.58c.807 0 1.412.593 1.412 1.383h1.613c0-1.58-1.31-2.963-3.024-2.963ZM12.6 6.124c3.327 0 6.15 2.666 6.15 6.024h1.613c0-4.148-3.427-7.506-7.661-7.506v1.482H12.6Z"/></symbol><symbol id="icon-play"><path d="M97.3 18.1s-1-7-3.8-10.1c-3.6-4-7.7-4.1-9.5-4.3-13.4-1-33.4-1-33.4-1s-20 0-33.4 1c-2 .2-6 .3-9.5 4.3-2.8 3.1-3.8 10.1-3.8 10.1s-1 8.2-1 16.4v7.7c0 8.2 1 16.4 1 16.4s.9 7 3.8 10.1c3.6 4 8.4 3.9 10.5 4.3 7.6.8 32.4 1 32.4 1s20 0 33.4-1c1.9-.2 5.9-.3 9.5-4.3 2.8-3.1 3.8-10.1 3.8-10.1s.9-8.2.9-16.4v-7.7c0-8.2-1-16.4-1-16.4Z" fill="#63D1BB"/><path d="M50.5 76.8c-1 0-25-.3-32.6-1h-.2l-1.1-.2a16 16 0 0 1-10.8-5C2.4 67 1.4 59.8 1.3 59c0-.3-1-8.5-1-16.7v-7.7c0-8.3.9-16.4.9-16.7v-.1c0-.8 1.2-7.9 4.5-11.6 4-4.4 8.5-4.9 10.7-5.1l.5-.1c13.4-1 33.4-1 33.6-1h.1c.2 0 20.2 0 33.6 1l.6.1c2.2.2 6.7.7 10.7 5.1 3.4 3.6 4.4 10.8 4.5 11.6 0 .3 1 8.5 1 16.8v7.7c0 8.3-1 16.4-1 16.7v.1c-.1.8-1.2 8-4.5 11.6-4 4.4-8.5 4.9-10.7 5.1l-.5.1h-.1c-13.4.9-33.5.9-33.7.9Zm-31.9-6.4c7.5.7 31.2 1 32 1 .7 0 20.1 0 33-1l.7-.1c1.8-.2 4.6-.5 7.2-3.3a20 20 0 0 0 3-8.6c.2-.5 1-8.4 1-16.1v-7.7c0-7.8-1-15.6-1-16.1-.3-2.4-1.4-6.8-3.1-8.5-2.6-2.9-5.4-3.1-7.2-3.3l-.6-.1c-13.2-1-32.9-1-33-1h-.2c-.2 0-20 0-33 1l-.6.1c-1.8.2-4.6.5-7.2 3.3a20 20 0 0 0-3.1 8.6c-.1.6-1 8.4-1 16.1v7.7c0 7.7 1 15.6 1 16.1.3 2.4 1.4 6.8 3 8.5 2.4 2.6 5.4 3 7.6 3.3.6-.1 1 0 1.5.1Z" fill="#fff"/><path d="M38.6 20.5v35.7l29.8-17.8-29.8-17.9Z" fill="#fff"/></symbol><symbol id="icon-radio"><path d="M20.91 2.513c10.584 0 19.132 8.42 19.132 18.766 0 10.347-8.549 18.766-19.132 18.766-10.584 0-19.132-8.419-19.132-18.766 0-10.347 8.548-18.766 19.132-18.766Z" stroke="#444" stroke-width="2"/></symbol><symbol id="icon-rocket"><path d="M40.947 5.75A47.823 47.823 0 0 0 28.41 4.065c-2.932 0-5.56.198-7.785.594L13.75 0H.101l5.864 6.147h8.493c-4.651 1.586-6.875 3.47-6.875 3.47v3.767s2.325 1.883 6.976 3.47H5.864L0 23h13.649l6.875-4.66c2.325.397 4.853.595 7.785.595 4.55 0 8.796-.694 12.537-1.685-1.214-1.784-1.921-3.668-1.921-5.85.1-1.982.91-3.865 2.022-5.65ZM44.485 6.741c-1.314 1.586-2.022 3.173-2.022 4.759 0 1.586.708 3.172 2.022 4.759C50.955 14.077 55 11.499 55 11.499s-4.044-2.577-10.515-4.758Z" fill="#63D1BB"/></symbol><symbol id="icon-search"><path d="m17.693 16.057-3.477-3.477c1.023-1.33 1.534-2.966 1.534-4.705C15.75 3.477 12.273 0 7.875 0S0 3.477 0 7.875s3.477 7.875 7.875 7.875c1.739 0 3.375-.614 4.704-1.534l3.478 3.477c.204.205.409.307.818.307.614 0 1.125-.511 1.125-1.125 0-.204-.102-.511-.307-.818ZM2.25 7.875c0-3.068 2.557-5.625 5.625-5.625S13.5 4.807 13.5 7.875 10.943 13.5 7.875 13.5 2.25 10.943 2.25 7.875Z"/></symbol><symbol id="icon-telegram"><path fill-rule="evenodd" clip-rule="evenodd" d="M23.46 3.653c.18.15.265.382.227.611l-2.626 15.757a.657.657 0 0 1-1.012.439l-7.878-5.253a.657.657 0 0 1-.149-.956l2.611-3.263-4.36 2.906a.657.657 0 0 1-.658.041L4.363 11.31a.657.657 0 0 1 .073-1.205l18.383-6.566a.657.657 0 0 1 .642.115Zm-17.134 7.17 3.536 1.768 7.561-5.041a.656.656 0 0 1 .877.956l-4.805 6.006 6.438 4.292L22.208 5.15 6.326 10.823Z"/></symbol><symbol id="icon-toy"><path d="M0 43.993 27.4 60V36.544L0 20.436v23.557Zm51.3-31.51V15c0 1.812-3.5 3.322-7.7 3.322-4.3 0-7.7-1.51-7.7-3.322v-4.127c.3 1.71 3.6 3.12 7.7 3.12 4.3 0 7.7-1.51 7.7-3.322S47.8 7.35 43.6 7.35h-1l-5-2.92V7.55c0 1.812-3.5 3.323-7.7 3.323-2.7 0-5-.604-6.4-1.51-.2-.202-.4-.403-.7-.605-.4-.402-.6-.805-.6-1.208V4.53L17.4 7.35h-1.1c-4.3 0-7.7 1.51-7.7 3.322s3.5 3.322 7.7 3.322c4.1 0 7.4-1.41 7.7-3.12V15c0 1.812-3.5 3.322-7.7 3.322-4.3 0-7.7-1.51-7.7-3.322v-2.416l-6 3.523 27.5 16.108 27.4-16.007-6.2-3.725ZM37.7 22.752c0 1.812-3.5 3.322-7.7 3.322-4.3 0-7.7-1.51-7.7-3.322v-4.128c.3 1.712 3.6 3.121 7.7 3.121s7.4-1.41 7.7-3.12v4.127Zm-5.1 13.993V60L60 43.993V20.738L32.6 36.745Zm-2.7-30.1c4.3 0 7.7-1.51 7.7-3.323C37.6 1.51 34.1 0 29.9 0c-4.3 0-7.7 1.51-7.7 3.322s3.4 3.322 7.7 3.322Z" fill="#149080"/></symbol><symbol id="icon-video"><path d="m26.75 10 6.006-4v16l-6.006-4v-8Zm-2.002 0v8c0 2.2-1.801 4-4.003 4H4.729a4.014 4.014 0 0 1-4.003-4v-8c0-2.2 1.801-4 4.003-4h10.01c0-1.1.9-2 2.002-2V2H5.73c-.601 0-1.002-.4-1.002-1s.4-1 1.001-1h12.012c.6 0 1 .4 1 1v3c1.102 0 2.003.9 2.003 2 2.202 0 4.003 1.8 4.003 4Zm-12.011 0H4.729v8h8.008v-8Zm8.008 1c0-.6-.4-1-1.001-1H15.74c-.6 0-1.001.4-1.001 1s.4 1 1 1h4.005c.6 0 1-.4 1-1Z" fill="#63D1BB"/></symbol><symbol id="icon-vkontakte"><path d="M1 5.839c0-.855.515-1.316 1.545-1.383l3.97.025a.52.52 0 0 1 .533.377c.409 1.257.866 2.343 1.372 3.257.506.913 1.168 1.965 1.985 3.156.071.15.187.226.346.226.125 0 .223-.059.293-.176l.08-.277.027-4.35c0-.302-.075-.503-.226-.604-.151-.1-.431-.176-.84-.226-.32-.05-.48-.235-.48-.553 0-.067.01-.118.027-.151.373-1.09 1.44-1.635 3.198-1.635l1.492-.025c.675 0 1.234.16 1.678.478.444.318.666.821.666 1.509v5.708c.125.084.24.126.347.126.266 0 .497-.15.692-.453 1.954-2.582 3.011-4.308 3.17-5.18 0-.017.019-.059.054-.126.125-.251.329-.47.613-.654.284-.184.533-.31.746-.377a.554.554 0 0 1 .24-.05h4.13l.266.025c.355 0 .63.16.826.478.07.1.12.21.146.327.027.117.045.234.054.352.009.117.013.184.013.2v.177c-.124.687-.44 1.42-.946 2.2-.506.78-1.15 1.622-1.931 2.528-.782.905-1.27 1.5-1.466 1.785-.16.201-.24.386-.24.553 0 .135.071.286.213.453l3.89 4.627c.213.269.32.562.32.88 0 .386-.16.705-.48.956-.32.252-.701.394-1.145.428l-.453.025h-4.05a.855.855 0 0 0-.106.012.862.862 0 0 1-.107.013c-.39 0-.755-.16-1.092-.478-.125-.134-.96-1.123-2.505-2.967a1.387 1.387 0 0 0-.373-.327c-.07.268-.164.654-.28 1.157-.115.503-.2.863-.253 1.081l-.08.427c-.177.587-.55.94-1.119 1.057l-.373.025h-2.61c-1.475 0-2.945-.637-4.41-1.911-1.466-1.275-2.784-2.922-3.957-4.942-1.172-2.02-2.264-4.372-3.277-7.054A1.916 1.916 0 0 1 1 5.838Zm16.013 6.513c-.373 0-.71-.096-1.013-.29-.302-.192-.453-.456-.453-.791V5.487c0-.336-.089-.575-.266-.717-.178-.143-.489-.214-.933-.214l-1.518.05c-.764 0-1.341.126-1.732.378.781.352 1.172.922 1.172 1.71v4.426a1.5 1.5 0 0 1-.533 1.044 1.59 1.59 0 0 1-1.066.414c-.532 0-.94-.243-1.225-.729C8.06 9.871 7.03 7.993 6.356 6.216l-.24-.654-3.544-.025c-.231 0-.36.013-.386.038-.027.025-.04.096-.04.213 0 .151.017.31.053.478l.56 1.409c1.491 3.638 3.112 6.505 4.862 8.6 1.75 2.096 3.468 3.144 5.155 3.144h2.665c.106 0 .186-.03.24-.088.053-.06.097-.172.133-.34l.053-.251.506-2.213c.142-.302.267-.503.373-.604a.975.975 0 0 1 .693-.277c.426 0 .861.243 1.305.73l2.265 2.716c.142.218.293.327.453.327h4.396c.533 0 .8-.126.8-.378a.466.466 0 0 0-.08-.251l-3.864-4.552c-.302-.352-.453-.73-.453-1.131 0-.403.142-.788.427-1.157.23-.336.679-.893 1.345-1.673a37.64 37.64 0 0 0 1.745-2.188c.498-.679.826-1.295.986-1.848l.08-.327a.371.371 0 0 1-.027-.163.574.574 0 0 0-.026-.189h-4.183c-.267.1-.48.252-.64.453l-.16.478c-.444 1.156-1.607 2.942-3.49 5.356a1.892 1.892 0 0 1-1.305.503Z"/></symbol><symbol id="icon-yarn"><path d="M.306 13.953a16.044 16.044 0 0 0 0 6.232l4.176-3.165-4.176-3.067ZM24.852 1.586C19.963-.59 14.259-.59 9.269 1.982l7.638 5.54 7.945-5.936ZM34.528 13.062l-4.889 3.66 4.99 3.66c.51-2.373.51-4.946-.101-7.32ZM9.37 32.057c4.89 2.473 10.899 2.671 15.991.099l-8.25-6.035-7.74 5.936ZM8.046 14.249 1.732 9.698c-.306.692-.612 1.385-.815 2.078l5.398 3.957 1.731-1.484ZM18.945 24.835l8.453 6.134c.306-.198.611-.396.815-.594.306-.198.611-.495.917-.791l-8.454-6.134-1.731 1.385ZM11.611 11.578 4.074 6.137c-.51.495-.917 1.088-1.324 1.682l7.028 5.144 1.833-1.385ZM22.51 22.163l8.25 6.035c.509-.494.916-1.088 1.324-1.681l-7.843-5.739-1.732 1.386ZM15.176 8.907 7.333 3.169c-.203.099-.407.297-.61.396-.408.296-.816.593-1.121.989l7.843 5.64 1.731-1.287ZM26.074 19.394l7.13 5.144c.306-.692.611-1.286.917-1.979l-6.213-4.55-1.834 1.385ZM26.89 2.674.916 22.362c.203.692.509 1.385.815 2.077L28.722 3.96c-.509-.494-1.12-.89-1.833-1.286ZM31.269 6.532c-.306-.395-.611-.791-.917-1.088L2.852 26.22c.204.494.51.89.815 1.187.102.198.305.396.407.494L31.778 7.127c-.204-.198-.305-.396-.51-.594ZM32.898 8.907 5.704 29.484c.509.495 1.12.99 1.731 1.385l26.482-19.984c-.306-.692-.611-1.385-1.019-1.978Z" fill="#63D1BB"/></symbol><symbol id="icon-youtube"><path d="m17.85 11.293-5.236-3.491a.655.655 0 0 0-1.014.545v6.982a.654.654 0 0 0 1.014.546l5.237-3.491a.654.654 0 0 0 0-1.091Zm-4.94 2.814V9.57l3.403 2.27-3.404 2.268Zm12.48-8.563a2.4 2.4 0 0 0-1.452-1.637C20.218 2.478 14.251 2.5 14 2.5c-.25 0-6.218-.022-9.938 1.407A2.4 2.4 0 0 0 2.61 5.544C2.327 6.613 2 8.576 2 11.838c0 3.262.327 5.226.61 6.295a2.4 2.4 0 0 0 1.452 1.636c3.72 1.43 9.687 1.407 9.938 1.407h.076c.753 0 6.317-.043 9.862-1.407a2.4 2.4 0 0 0 1.451-1.636c.284-1.07.611-3.033.611-6.295s-.327-5.225-.61-6.294Zm-1.266 12.261a1.09 1.09 0 0 1-.655.742c-3.49 1.342-9.404 1.32-9.469 1.32-.066 0-5.978.022-9.47-1.32a1.09 1.09 0 0 1-.654-.742c-.261-1.003-.567-2.847-.567-5.967 0-3.12.306-4.963.567-5.967a1.09 1.09 0 0 1 .655-.742C8.02 3.787 13.935 3.81 14 3.81c.066 0 5.978-.022 9.47 1.32a1.092 1.092 0 0 1 .654.742c.262 1.004.567 2.847.567 5.967 0 3.12-.305 4.964-.567 5.967Z"/></symbol><symbol id="logo-map-pin"><path d="M27.687 32.164c-.609-3.274.102-6.845 0-10.218-.101-3.77-.71-7.44-.71-11.111 0-2.977.507-6.151-.508-9.028.101-.298.101-.695.203-.992.305-1.488-4.67-.695-5.38.595-.508.397-.711.893-.508 1.29.102.099.102.198.102.397-.914 4.464-2.234 8.73-3.756 13.095a257.52 257.52 0 0 1-1.828 4.86 67.034 67.034 0 0 1-2.335-4.662c-1.928-4.762-3.756-9.623-6.09-14.186.304-2.084-4.569-1.885-5.482 0C.278 4.584.38 6.966.785 9.446c.407 2.877.508 5.655.508 8.531.102 5.556.508 11.012.61 16.568-.508.595-.61 1.19-.102 1.885.203.297.507.496.812.794 1.32.992 4.974.198 4.974-1.786 0-5.754-.406-11.409-.609-17.163V16.59c.102.198.203.396.203.595.914 2.182 1.827 4.365 3.147 6.448 1.218 2.084 1.827 4.266 2.538 6.449-.305.297-.406.595-.305.992-.101.297.102.397.406.496.914.793 2.64.397 3.553 0l1.219-.595c.507-.298 1.218-.992 1.015-1.588 0-.099-.102-.297-.102-.397.71-1.785 1.015-3.571 1.421-5.456.407-1.984 1.117-3.869 1.828-5.754.101.893.101 1.687.203 2.58.304 3.57 0 7.043 0 10.614 0 1.191.101 2.282.304 3.374.102.496.508 2.48.406 2.579-.913.794-.609 1.786.508 1.984 1.32.298 2.944-.1 3.959-.992 1.624-1.389.812-3.77.406-5.754Z" fill="#6BC6B3"/></symbol><symbol id="mishka-logo-desktop"><path d="M144.2 31.1c-1.5 1-3.2 1.9-4.8 2.8 0-1.7 0-3.5-.6-5l.1-1c.4-3 .7-7-2-9.1-.3-.3-1.2 0-1.9.3l-.5-.4-.2-.7-.4-.2c.3-.4.3-.8-.4-1.1l-1.1-.4-.2-.1-3-.7.7-1c0-.2.3-.3.4-.4l.2-.2.2-.2c.4-.3.8-.9.2-1.2-.6-.2-1.5 0-2 .2-1 .7-1.7 1.4-2.2 2.4-2-.2-4-.2-6.1 0l.1-.4c.2-.6-.9-.5-1.2-.5l-4.7.6c1.4-3.7 3-8.5 1-12.1-1.2-2.1-4-2.6-6.2-2.7-2.4 0-4.9.5-7 1.6-4.8 2.6-7.2 7.6-8.3 13-.5-.8-2.3-.5-2.6.4l-.3 1-.3.6v.2H91l.1-.3.3-.4a131 131 0 0 1 2-6.7c.2-.8-2.6-.4-2.9.4a48 48 0 0 0-1.1 3.5l-.4.3v.1a.8.8 0 0 0-.5-.2v-1c0-.3-2.8 0-2.8.8V15l-.5.3-.2.2-.1.2v.1l-.1.1c-.1.1-.2.3 0 .5s.5.2.7.2v.5h-.6l-.4-.1c0-.4-.7-.5-1.4-.3v-.1l-.2-1.8.7-.3c.2 0 .3-.2.3-.4v-.2c0-.2-.4-.2-.5-.2h-.6l-.1-3.8c0-.8-2.9-.3-2.9.8 0 1.7 0 3.5.2 5.2h-.3v-1.5c0-1-1.3-1.2-2-.8.2-.3.4-.6.3-1-.4-1.3-.8-2.7-1-4.2-.2-1.4-3-.7-2.8.8.2 1.5.6 2.9 1 4.2.2.8 1.3 1 2.1.5-.2.2-.4.5-.4.8v.6c-.3-.3-.5-.3-.9-.3-1.1 0-1.7.9-1.4 1.5l-.5-.1c-.4-1.2-.7-2.5-.7-3.8 0-.8-1.3-1-2.1-.6v-.2c-.4-.8-.6-1.7-.8-2.5-.3-1.3-3.2-.6-2.8.8l.5 1.9H68c-.3 0-.6.2-1 .4-.8 0-1.8.5-1.8 1.1l.2 1.4-1.5.2-.6-2.4c0-.8-1.6-.8-2.3-.3-.8-2-1.8-3.9-3.1-5.7A11.5 11.5 0 0 0 46.5 3c-1.9.4-3.7 1.2-5 2.5-1.2 1.4-1.4 3.1-1.2 4.8.2 1.5.6 4 1.6 5.9l-1 .1a2 2 0 0 0-.7.4l-5.9-.1c-4.2-.2-8.3-.9-12.5-.7-1 0-1.6.7-1.6 1.3-1 .5-1.7 1.3-2 2.3-1.8-1.1-3.6-2.3-5.4-3.2-.7-.4-3.3.7-2.3 1.2 1.8.9 3.6 2 5.3 3.1.5.3 1.3.1 1.8 0l.2-.2c-.3 1.4-.2 3.1.2 4.5l.2.3v1.2c-.4.2-.7.5-.8.8-.2 1.3-.3 2.7-.3 4.1-.3.2-.5.5-.5.8-.2 3.3 0 6.6.5 9.9.2 2.6.7 5.2 1.2 7.9l.2 1.2a8 8 0 0 0-.2 3.5c-.9.2-1.7.9-1.2 1.6a8 8 0 0 0 2.6 2.5c-.6 0-1.4.1-1.9.6l-2.5 2.3c-.4.4-.3.9.3 1 .7.3 1.5 0 2-.4l2.5-2.3c.2-.2.3-.5.2-.7 3.3 1.7 7.3 1.3 11.2 1-.9 1.5-1.5 3.2-2.2 4.9-.3.7 2.5.4 2.8-.4.6-1.7 1.2-3.3 2.1-4.9l11.3.1c.1.2.4.3.7.3a36 36 0 0 0 9.8-.7l14.5-.8c7.5-.2 15.2-.3 22.7-.3l.3.3c.3.3.6.3 1 .3h.2l2.1.1h.7l2.3.2.8.4 11.4.7c.1.2.6.3.9.3 7.1.1 15.4 2.8 21.7-1.7.5-.4.3-.8-.3-1h-.3c1.2-2.7 2.2-5.5 3-8.4.3-.2.5-.5.5-1 0-1.1.2-2.3.4-3.5l.4-2.6c.4-2.2.8-4.4 1-6.5a44 44 0 0 0 6.7-3.7c1.6-1.2-.8-1.9-1.8-1.2ZM88.4 16.3l-.1.1c0-.3 0-.6.2-.9l-.1.8Z" fill="#000"/><path d="M63.7 12.5c.1.2.6.2.8.2.4 0 .8 0 1.1-.2.4-.2 1.1-.5.8-1l-1-1.8c0-.2-.6-.2-.8-.2-.4 0-.8 0-1 .2-.5.2-1.2.6-.9 1 .3.7.6 1.4 1 1.8Zm-42.9-1.6c.2.6 1.2.6 1.7.5.5-.1 1.4-.6 1.2-1.3-.2-.6-.4-1.3-1-1.8-.4-.5-1.2-.4-1.9-.2-.4.2-1.2.8-.7 1.3.4.6.5.9.7 1.5ZM31 13.8c.7 0 3-1.3 1.1-1.3-.9 0-3.1 1.3-1.2 1.3Zm92.4-1.5 1.1-.1c.3-.1.7-.2 1-.5l1-1.2v-.6l-.9-.3c-.4 0-.8 0-1 .2-.4 0-.7.3-.9.6 0 .2-.2.4-.4.5l-.2.2-.3.6c.1.4.3.5.6.6Zm13.4 5.3c.6-.1 1.4-.2 2-.7 1.2-1.1 2.5-2.2 3.5-3.6.3-.4-1-.2-1-.2-.6.1-1.4.3-1.8.7-.9 1.3-2.2 2.3-3.4 3.4-.5.4.4.4.7.4Zm10.9 26.7h-5c-.6 0-1.5.5-1.6 1.1 0 .7.8 1 1.3 1h5c.6 0 1.5-.6 1.6-1.2 0-.7-.7-.9-1.3-.9ZM57.4 60.1c-.5.1-1.4.3-1.6.8l-1.4 3.9c-.2.7 2.6.3 2.8-.5.4-1.3.8-2.6 1.4-3.9.2-.5-1-.3-1.2-.3Zm4.6 2.6c-.3 0-.7 0-1 .2-.3 0-.7.2-1 .4-.1 0-.3.2-.3.4v.3l-.1.3v.3h.7c.4 0 .7 0 1.1-.2l.8-.4.3-.5V63c0-.3-.4-.3-.5-.3Zm55.5 3.6c-.4-.6-3 .3-2.8.8.8 1.6 1.9 3.1 2.9 4.7.4.7 3-.4 2.8-.8-1-1.6-2.1-3-3-4.7Zm4-2.3c-.3-.6-1.1-.6-1.6-.4-.4 0-1.5.6-1.2 1.2l1.2 2.2c.3.6 1.1.6 1.6.4.4 0 1.5-.6 1.2-1.2l-1.2-2.2ZM5.7 42.7c-1.5.3-3 .5-4.5 1-.5 0-1.3.5-1.2 1.2.2.7 1.1.7 1.7.6l4.5-1c.6 0 1.4-.7 1.3-1.3-.3-.6-1.3-.6-1.8-.5Z" fill="#000"/><path d="M44.1 39.7c-.1-2.7-.5-5.3-.5-8 0-2.2.4-4.4-.4-6.5v-.7c.3-1.1-3.2-.5-3.7.5-.3.3-.5.6-.4 1v.3c-.6 3.1-1.5 6.3-2.6 9.3l-1.3 3.6-1.7-3.4c-1.4-3.4-2.6-6.9-4.3-10.1.2-1.5-3.2-1.4-4 0a8.4 8.4 0 0 0-.3 5.2c.3 2 .4 4 .4 6.1 0 4 .4 8 .4 11.9-.4.4-.5.9-.1 1.4l.6.5c.9.7 3.5.1 3.5-1.2 0-4.2-.3-8.2-.4-12.4V36l.2.4a28 28 0 0 0 2.2 4.7c1 1.5 1.3 3 1.8 4.6-.2.2-.3.5-.2.7 0 .2.1.3.3.4.6.6 2 .3 2.5 0l.9-.4c.3-.2.9-.7.7-1.2l-.1-.3c.5-1.3.7-2.5 1-4 .3-1.3.8-2.7 1.3-4 0 .5 0 1.2.2 1.8.2 2.6 0 5 0 7.6 0 .9 0 1.6.2 2.5l.3 1.8c-.6.6-.4 1.3.4 1.4.9.2 2 0 2.8-.7 1.2-1 .6-2.8.4-4.2-.6-2.4-.1-5-.1-7.4Zm8.5.7c-.1-2-.8-3.9-.8-5.8 0-2.3.2-4.6-.3-6.9 0-.6-4 .1-4 1.1.3 2.1.2 4.3.2 6.4 0 2 .5 3.8.7 5.9.3 2 0 4.1.1 6.2.1 1 .8 2.8.1 3.5-.4.5 1.5.3 1.6.3.8 0 1.9-.4 2.4-1 .7-.7.2-2.3 0-3.3-.1-2.3 0-4.3 0-6.4ZM69.2 37c-2.1-2.7-6-.8-8.7-1.6-1.4-.3-1.4-2.2-1.4-3.3l-.3-4.2c-.1-1 0-2 .8-2.8l.8-.3 1.1-.1c1.6-.1 4.7.2 4.1 2.5-.3 1 3.7.4 4-.6 1.2-4.6-7.5-3.7-9.9-3.1-2.2.6-4.7 1.9-4.8 4.3-.1 1.2.3 2.4.3 3.6 0 1.4-.2 2.8.3 4.1 1 3 5.6 1.6 7.8 1.8 4 .3 2.7 5.5 2.8 8 0 1.2 1.3 3.4.2 4.4-.6.7-2 .7-2.8.8-.8 0-2.2.2-2.8-.5-1-1.4.1-3.8 0-5.5-.3-1-4.3 0-4.1 1 .3 2.7-1.4 6.1 2.4 6.6 2.5.3 5.2-.2 7.6-.9 1.3-.4 2.4-1 3.4-1.7 1-1 .7-2.4.4-3.6-.7-3 .7-6.3-1.2-8.9Zm17.6-.2c-.1-3.7-.7-7.5-.7-11.2 0-2-4-1.3-4 .3 0 3.5.5 7 .7 10.7v.2l-6 .2c.2-4.6-.6-9.2-.4-13.8 0-.6-4 0-4 1-.2 4.5.6 9 .5 13.4l-.3 6.4.3 3.3c0 1 .5 2.4.2 3.3-.2.7 3.6.2 4-.7.4-1.8-.3-4-.5-5.9-.2-1.6 0-3.4.1-5.2 2 0 4.1-.3 6.2 0l.3 4.2.2 3.4c0 1 0 2.5-.2 3.5-.8 2 3.2 1.8 3.8.4.7-2 .5-4.2.4-6.2-.2-2.3-.6-4.8-.6-7.3Zm17.1 4.6c-1-2.8-2.4-5.2-3.6-7.8l3-5.9c.8-1.7 1.5-3.8 3.1-5 .6-.5.6-.9-.3-1-.9 0-2.1.2-2.8.7a11.2 11.2 0 0 0-3.2 4.3l-3 6c-.2 0-.3.3-.3.4-.5.3-.8.8-.6 1.3L93.7 39c-.3-5.5-1-11-1.2-16.6 0-1.3-4-.5-4 1.1.2 6.8 1.2 13.6 1.3 20.5v.1c-.3.3-.2.5.1.6l-.2 5.3c-.5.7.5 1 1.1 1h.1c.7 0 2.6-.3 2.7-1.3.2-2.1.3-4.2.2-6.3 1.6-1.6 3-3.6 4.2-5.6a26 26 0 0 1 2 4.6c.9 2.7 2.3 5.2 3.2 8 .5 1.7 4.5.6 4-1.1-.9-2.7-2.3-5.3-3.3-8Zm24-4.7c-.2-.8-1.5-.9-2.4-.8v-1c0-2.6-.2-5.3-.4-8-.2-2.4-1.6-3.3-4-3.2-2.4.1-5.3.5-7.6 1.4a7 7 0 0 0-4.7 5.6c-.6 3 .2 6.2.4 9.2.2 3.4.1 7 .1 10.5 0 .5 4 0 4-1.1V38.5c1.4-.6 3.7 0 5 .1 1.2.1 2.3-.2 3.4-.3l.2 7c0 1.1.5 3.5-.4 4.5-.4.5 1.5.3 1.6.3.8-.1 1.8-.4 2.3-1.1 1-1.1.5-3.8.4-5.2v-5.7c1 .2 2.3-.6 2-1.4Zm-15-.2-.2-3.7c-.2-2.4 0-5.5 2.3-7 .6-.4 1.7-.3 2.4-.4 1-.2 2-.4 2.9.2 1.2.8 1 3.6 1 4.8l.2 6-1.7.1c-2.3 0-4.6-.4-6.8 0ZM49.1 25c.5-.1 1.1-.2 1.5-.5l.3-.2c.5-.3 1-.8.7-1.4-.5-1-.4-2.3-.4-3.3s-1-1.3-1.8-1.2c-.7 0-2.2.6-2.2 1.5l.1 3v.3c-.2.2 0 .4 0 .6v.4l.4.5c.4.3 1 .3 1.4.3Z" fill="#fff"/></symbol><symbol id="mishka-logo-footer"><path d="M19.2 21.5c0-2.7-.5-5.3-.5-8 0-2.2.4-4.4-.4-6.5l.1-.7c.2-1-3.3-.5-3.8.5-.3.3-.5.6-.4 1l.1.3c-.7 3.2-1.6 6.3-2.6 9.4L10.4 21c-.6-1.1-1.2-2.2-1.6-3.4-1.4-3.4-2.6-6.9-4.3-10.2.2-1.5-3.2-1.4-3.9 0a8.4 8.4 0 0 0-.4 5.2c.3 2 .4 4 .4 6.1 0 4 .4 7.9.4 11.9-.4.4-.5.9 0 1.4l.5.5c1 .7 3.6.1 3.6-1.3 0-4.1-.3-8.2-.4-12.4v-1.2l.2.4c.6 1.6 1.3 3.2 2.2 4.7 1 1.5 1.3 3.1 1.8 4.7-.2.2-.3.5-.2.7 0 .2.1.3.3.4.6.5 1.8.3 2.5 0l.8-.4c.3-.2 1-.7.7-1.2v-.3l1-3.9a28 28 0 0 1 1.2-4.1l.2 1.9c.2 2.6 0 5.1 0 7.6l.2 2.5c.1.3.4 1.8.3 1.9-.8.5-.6 1.1.2 1.3 1 .2 2.1-.1 2.8-.7 1.2-1.1.6-2.8.4-4.2-.5-2.4 0-5 0-7.4Zm8.4.7c0-2-.8-3.9-.8-5.9 0-2.3.2-4.6-.2-6.9 0-.7-4 .1-3.9 1 .3 2.1.2 4.2.2 6.4 0 2 .5 3.9.7 5.9.3 2.1 0 4.2.1 6.2.1 1 .8 2.7.1 3.6-.4.5 1.5.3 1.6.3.8-.1 1.8-.4 2.3-1 .7-.8.2-2.4.1-3.4-.3-2 0-4.2-.2-6.2ZM44 18.9c-2.2-2.8-6-.8-8.7-1.5C34 17 34 15.1 34 14c0-1.4 0-2.7-.3-4.1 0-1.1 0-2.1.7-2.9l.8-.3 1.1-.1c1.5-.1 4.6.2 4 2.5-.3 1 3.6.4 4-.6 1.1-4.6-7.4-3.7-9.8-3.1-2.2.6-4.6 1.8-4.8 4.4l.3 3.6c.1 1.4-.2 2.8.3 4.1 1.1 3 5.5 1.6 7.8 1.7 3.8.3 2.7 5.5 2.7 7.9 0 1.3 1.2 3.4.2 4.5-.6.7-2 .7-2.8.8-.8.1-2.2.3-2.7-.5-1-1.4.1-3.8 0-5.4-.2-.9-4.2-.1-4 1 .3 2.6-1.4 6.1 2.4 6.6 2.4.3 5.2-.2 7.5-.9 1.2-.4 2.3-.9 3.2-1.8 1-.9.7-2.3.4-3.5-.5-3.1 1-6.5-1-9Zm17.3-.2c0-3.8-.7-7.5-.7-11.3 0-2-4-1.3-4 .3 0 3.6.5 7.2.7 10.8v.2l-5.9.2c.2-4.6-.6-9.2-.4-13.9 0-.6-3.9-.1-3.9 1-.2 4.5.6 8.9.5 13.4l-.3 6.4.3 3.3c.1 1 .5 2.3.2 3.3-.2.8 3.6.3 4-.7.4-1.8-.3-4-.5-5.8-.2-1.7 0-3.5.1-5.2 2-.1 4.1-.3 6.1 0l.3 4.1.2 3.5c0 1 .1 2.5-.2 3.5-.8 2.1 3.1 1.9 3.7.4.7-1.9.5-4.2.4-6.2-.2-2.5-.6-4.9-.6-7.3Zm16.9 4.4c-.9-2.8-2.4-5.2-3.6-7.8l3-5.9c.7-1.8 1.3-3.8 3-5.1.6-.4.6-.9-.3-1-.9-.1-2 .2-2.8.7a12.2 12.2 0 0 0-3 4.4l-3 6.1c0 .1 0 .3-.2.4-.5.3-.8.8-.6 1.3l-2.5 4.6c-.3-5.5-1-11.1-1.2-16.6 0-1.3-4-.5-3.9 1 .2 6.9 1.2 13.7 1.3 20.6v.1c-.3.3-.2.5.1.6 0 1.8 0 3.5-.2 5.3-.5.7.5 1.1 1.1 1.1h.1c.7 0 2.6-.3 2.7-1.4.2-2.1.3-4.2.2-6.3 1.6-1.7 3-3.6 4.1-5.6.8 1.5 1.5 3 2 4.6 1 2.7 2.3 5.3 3.1 8 .5 1.8 4.5.7 4-1-1-2.8-2.5-5.3-3.4-8.1Zm23.5-4.6c-.2-.8-1.4-.8-2.3-.8v-1c0-2.7-.2-5.4-.4-8-.2-2.5-1.6-3.3-4-3.2-2.4.1-5.2.5-7.5 1.4a7 7 0 0 0-4.6 5.7c-.5 3 .2 6.2.4 9.2.2 3.5.1 7 .1 10.5 0 .6 4 0 4-1V23l-.2-2.4c1.4-.6 3.7 0 5.1.1 1.1.1 2.2-.2 3.2-.3l.2 6.9c0 1.2.5 3.5-.4 4.5-.4.5 1.5.3 1.6.3.8-.1 1.8-.4 2.3-1 1-1.1.5-3.8.4-5.1v-5.7c1-.2 2.3-.9 2.1-1.8Zm-14.6-.1-.3-3.7c-.2-2.3.1-5.6 2.3-7 .6-.4 1.7-.3 2.4-.4 1-.2 2-.4 2.8.2 1.2.8 1 3.7 1 4.9l.2 6-1.7.1c-2.3-.2-4.6-.6-6.7-.1ZM24.2 6.7c.5-.1 1-.2 1.5-.5L26 6c.5-.3 1-.8.7-1.4-.5-1.1-.4-2.2-.4-3.4 0-1-1-1.2-1.8-1.2-.7.1-2.2.6-2.2 1.5l.1 3v.4c-.2.2 0 .4 0 .6v.4l.4.5a3 3 0 0 0 1.5.3Z"/></symbol><symbol id="mishka-logo-mobile"><path d="M4.5 26.3c0-3.5-.3-6.9-.4-10.4v-1l.1.4c.5 1.4 1.1 2.7 1.8 4 .7 1.1 1.1 2.5 1.5 3.8-.2.2-.3.4-.2.6 0 .2.1.2.2.3.5.5 1.5.2 2.1 0l.7-.4c.3-.2.7-.6.6-1v-.2l.7-3.3c.2-1.2.7-2.3 1.1-3.5l.1 1.6c.2 2.1 0 4.3 0 6.4 0 .7 0 1.4.2 2.1.1.3.3 1.5.2 1.6-.5.5-.4 1.1.3 1.2.8.2 1.8 0 2.3-.6 1-.9.5-2.4.3-3.6-.4-2 .1-4.2 0-6.2 0-2.3-.4-4.5-.4-6.8 0-1.8.3-3.7-.3-5.5l.1-.6c.2-.9-2.8-.4-3.2.4-.3.2-.4.5-.3.8l.1.2a71 71 0 0 1-2.2 8l-1 3-1.5-2.9C6.2 11.8 5.2 9 3.8 6.1 4 4.8 1.1 5 .5 6.1a7.4 7.4 0 0 0-.4 4.4c.3 1.7.3 3.4.3 5.1 0 3.3.3 6.7.4 10-.3.3-.4.7 0 1.2 0 .2.2.3.4.5 1.2.7 3.3.2 3.3-1ZM22.7 8c0-.7-3.4 0-3.3.8.3 1.8.2 3.6.1 5.4 0 1.7.4 3.3.6 5 .2 1.7 0 3.5.1 5.2.1.8.6 2.3.1 3-.4.4 1.2.3 1.3.3.6 0 1.5-.3 2-.9.5-.7.1-2 0-2.8-.4-1.7-.2-3.5-.3-5.3 0-1.7-.6-3.3-.7-4.9.3-2 .4-3.9.1-5.9Zm3.3 6.6c.8 2.5 4.5 1.3 6.5 1.5 3.2.2 2.3 4.6 2.3 6.6 0 1.1 1 3 .2 3.8-.5.6-1.7.6-2.4.6-.7.1-1.9.3-2.3-.4-.8-1.2.1-3.2 0-4.6-.2-.8-3.5 0-3.4 1 .3 2.1-1.2 5.1 2 5.5 2.1.2 4.4 0 6.3-.8 1-.3 2-.8 2.7-1.5 1-.8.6-2 .4-3-.6-2.5.6-5.3-1-7.5-1.7-2.3-5-.7-7.2-1.3-1.2-.2-1.2-1.8-1.2-2.8 0-1.2 0-2.3-.2-3.5 0-.9 0-1.8.6-2.4l.7-.3h1c1.2-.2 3.8.1 3.3 2-.2 1 3 .4 3.3-.5 1-3.9-6-3-8.2-2.6-1.9.5-3.9 1.6-4 3.7l.3 3c0 1.2-.3 2.4.2 3.5Zm14.3 1.9-.2 5.4c0 1 .1 1.8.3 2.8.1.8.4 2 .2 2.8-.2.6 3 .2 3.3-.6.5-1.5-.2-3.4-.3-4.9l.1-4.4a29 29 0 0 1 5.1 0l.3 3.5.2 3c0 .8.1 2-.2 2.8-.7 1.7 2.7 1.6 3.1.3.6-1.6.4-3.5.3-5.2-.3-2.2-.6-4.2-.6-6.3 0-3.2-.6-6.3-.6-9.5 0-1.7-3.3-1-3.3.3 0 3 .4 6 .6 9.1v.2l-4.9.2c.2-3.9-.5-7.8-.4-11.7 0-.5-3.3 0-3.3 1-.2 3.7.4 7.4.3 11.2Zm14.1 5.3c-.3.3-.2.4 0 .5 0 1.5 0 3-.2 4.4-.4.6.4 1 1 1s2.2-.3 2.3-1c.2-1.9.2-3.6.2-5.4 1.3-1.4 2.4-3 3.4-4.7.6 1.2 1.2 2.5 1.7 4 .7 2.2 2 4.3 2.6 6.7.5 1.5 3.8.6 3.3-.9-.7-2.3-1.9-4.5-2.6-6.8-.8-2.3-2-4.4-3-6.6l2.5-5c.7-1.5 1.2-3.2 2.6-4.3.5-.4.5-.8-.2-.8s-1.7.2-2.3.6c-1.3 1-2 2.2-2.7 3.6l-2.5 5.1-.2.4c-.4.3-.7.6-.5 1.1l-2 4c-.4-4.8-.9-9.4-1-14 0-1.2-3.4-.5-3.4.8.2 5.7 1 11.5 1 17.3ZM86 15.6c-.3-.7-1.3-.7-2-.6v-.8c0-2.2 0-4.5-.3-6.8-.2-2-1.3-2.8-3.3-2.7-2 .1-4.4.4-6.3 1.2a6 6 0 0 0-3.8 4.8c-.5 2.5.2 5.2.3 7.8l.1 9c0 .4 3.3 0 3.3-1v-9c1.1-.6 3 0 4.2 0 1 .1 1.8 0 2.7-.2l.2 6c0 1 .4 3-.3 3.7-.4.4 1.2.3 1.3.3.7 0 1.5-.3 2-.9.7-.9.3-3.2.2-4.3v-4.8c.7-.4 1.8-1 1.6-1.7Zm-6.7-.2c-1.9 0-3.8-.3-5.7 0l-.3-3.2c0-2 .1-4.7 2-5.9.4-.3 1.3-.3 2-.4.7 0 1.5-.3 2.3.2 1 .7.8 3.1.8 4.1l.3 5.1-1.4.1ZM19.1 4.1l.1.5V5l.4.4c.3.2.7.2 1.1.2.4 0 1-.2 1.2-.4l.2-.2c.4-.3.8-.7.6-1-.4-1-.4-2-.3-3 0-.8-.8-1-1.5-1-.6.1-1.8.5-1.8 1.3l.1 2.5v.3Zm61.5 29.2c-1.6-.6-3.3-.6-4.9-.8l-4.9-.6-5 .1-4.9.3c-6.5.3-13 .3-19.5.1-6.5 0-13-.5-19.6-.5l-9.9.3c-1.6.3-3.2.5-4.9 1-1.6.3-3 .8-4.8 1 1.6.3 3.3.2 5 .2l5 .2c3.1-.2 6.4-.2 9.6-.3 6.5 0 13 .3 19.6.5 6.5.1 13.1.2 19.7 0l5-.4h4.7l5-.6c1.6-.2 3.1-.6 4.8-.5h.1v-.6.6Z" fill="#000"/></symbol><symbol id="mishka-logo-tablet"><path d="M110.9 41.8c4.4 1 .8-35.8 0-38.2-2-6.6-26.8-2.1-32.3-1.7-12.8 1-25.3-1-37.8-.4-6.2.3-35-1.8-37.7 2-5 7.2-2.7 25.7-1.3 35-4 .8 2.3 4.2 3.1 5 6.4 2.1 16.5-.3 23.1.3 15.5 1.5 32-2.2 47.6-1 4.5 1.1 9.7 1 14.3 1.2 3.5 5.6 19.8-2.4 21-2.2-.1 0 .5.1 0 0Z" fill="#000"/><path d="M26.2 24.3c0-2.4-.5-5-.5-7.5 0-2.1.4-4.2-.3-6.2l.1-.7c.2-1-3-.5-3.6.4-.3.3-.5.6-.4.9l.1.2c-.6 3-1.5 6-2.5 8.9l-1.2 3.3-1.6-3.1c-1.3-3.3-2.5-6.6-4.1-9.7.2-1.5-3-1.3-3.8 0a7.4 7.4 0 0 0-.4 4.9c.3 1.9.3 3.8.4 5.8 0 3.7.3 7.4.4 11.2-.3.4-.4.8 0 1.3l.4.5c1 .7 3.4.1 3.4-1.2 0-3.9-.3-7.8-.4-11.6v-1.1s0 .3.2.4c.6 1.5 1.2 3 2 4.3.9 1.4 1.3 3 1.8 4.4-.2.2-.3.4-.2.7 0 .2 0 .3.2.3.6.5 1.7.3 2.4 0 .3 0 .5-.2.8-.4.3-.2.8-.6.7-1v-.4l.8-3.7a25 25 0 0 1 1.2-3.8l.1 1.8c.2 2.3 0 4.7 0 7.1l.2 2.3.3 1.8c-.6.5-.4 1.2.4 1.4 1 .2 2 0 2.6-.7 1.1-1 .6-2.7.3-4-.3-2 .3-4.5.2-6.8Zm8 .7c-.1-1.8-.7-3.6-.7-5.5 0-2.2.2-4.4-.1-6.5-.1-.7-3.8 0-3.7 1 .3 2 .2 4 .2 6 0 1.9.4 3.6.7 5.5.3 2-.1 4 0 6 .2.8.8 2.5.2 3.3-.4.5 1.4.3 1.5.3.7 0 1.7-.4 2.2-1 .6-.8.2-2.3 0-3.2-.4-1.9-.2-4-.3-5.9Zm15.6-3.1c-2-2.6-5.7-.7-8.2-1.5-1.3-.4-1.3-2.2-1.3-3.2 0-1.4 0-2.6-.3-4 0-1 0-2 .7-2.7l.8-.3 1-.1c1.5-.1 4.4.2 3.8 2.4-.3 1 3.5.4 3.8-.6 1.2-4.4-7-3.5-9.3-3-2 .7-4.4 1.9-4.5 4.3-.1 1.2.3 2.3.3 3.4 0 1.3-.2 2.6.3 3.9 1 2.7 5.2 1.5 7.4 1.7 3.7.3 2.6 5.1 2.6 7.4 0 1.2 1.2 3.3.3 4.3-.7.6-2 .7-2.7.7-.8.1-2 .3-2.6-.4-.9-1.3.1-3.6 0-5-.2-1-4-.2-3.8 1 .3 2.4-1.3 5.7 2.3 6.2 2.3.3 5-.2 7.2-.9 1-.4 2.2-.9 3-1.7 1-.9.8-2.2.5-3.4-.8-3 .5-6.2-1.3-8.5Zm16.6-.2c-.1-3.6-.8-7.1-.8-10.7 0-2-3.8-1.2-3.8.3 0 3.4.5 6.8.6 10.2v.2l-5.6.2c.2-4.4-.6-8.8-.4-13.1 0-.6-3.7-.1-3.7 1-.2 4.2.6 8.5.4 12.7l-.2 6 .3 3.1c0 1 .5 2.2.2 3.1-.2.7 3.4.3 3.7-.7.5-1.7-.2-3.8-.4-5.5-.2-1.6 0-3.3.1-5 2 0 4-.3 5.8 0a50934.7 50934.7 0 0 1 .5 7.2c0 1 .1 2.4-.2 3.3-.7 2 3 1.8 3.6.3.7-1.8.5-4 .4-5.8-.1-2.2-.5-4.6-.5-6.8Zm16 4.3c-.9-2.7-2.3-5-3.4-7.4 1-2 2-3.7 2.8-5.6.8-1.7 1.4-3.6 3-4.8.5-.4.5-.8-.3-1A4 4 0 0 0 82 8a9.5 9.5 0 0 0-3 4l-2.9 6-.2.4c-.5.3-.7.7-.6 1.2-.8 1.5-1.5 3-2.4 4.3-.3-5.2-1-10.4-1.1-15.7 0-1.2-3.8-.5-3.7 1 .2 6.5 1.2 13 1.2 19.4-.3.3-.2.5 0 .6l-.1 5c-.4.7.4 1.1 1 1.1.8 0 2.6-.3 2.7-1.3.2-2 .2-4 .2-6 1.5-1.6 2.7-3.4 3.8-5.2.7 1.3 1.4 2.7 2 4.2.7 2.6 2.1 5 3 7.6.4 1.7 4.2.7 3.7-1-1-2.6-2.3-5-3.2-7.6Zm22.5-4.4c-.2-.8-1.4-.8-2.3-.7v-1c0-2.5-.2-5.1-.4-7.6-.2-2.3-1.5-3.2-3.8-3.1-2.3 0-5 .5-7.1 1.3-2.5 1-4 2.8-4.3 5.4-.5 2.9.2 5.9.4 8.7v10c0 .5 3.8 0 3.8-1v-7.9l-.1-2.3c1.3-.5 3.5 0 4.8.1 1.1.1 2.1-.2 3.1-.3l.2 6.6c0 1.1.5 3.4-.3 4.3-.4.5 1.4.3 1.5.3.8 0 1.7-.4 2.2-1 1-1 .4-3.6.4-4.9v-5.3c.9-.1 2-.8 1.9-1.6Zm-14-.2-.2-3.6c-.2-2.2 0-5.3 2.2-6.6.6-.4 1.6-.3 2.2-.4 1-.2 2-.4 2.7.2 1.1.8 1 3.5 1 4.6l.2 5.7h-1.6c-2.2 0-4.4-.3-6.4 0ZM31 10.4c.5 0 1-.2 1.4-.5l.2-.2c.5-.3.9-.8.7-1.3-.5-1-.4-2.1-.4-3.2 0-1-1-1.2-1.7-1.1-.7 0-2.1.6-2.1 1.4v4.1l.5.5c.5.3 1 .3 1.4.3Z" fill="#fff"/></symbol></svg>